<?xml version="1.0" encoding="UTF-8" standalone="no"?>
<!-- Created with Inkscape (http://www.inkscape.org/) -->

<svg
   xmlns:dc="http://purl.org/dc/elements/1.1/"
   xmlns:cc="http://creativecommons.org/ns#"
   xmlns:rdf="http://www.w3.org/1999/02/22-rdf-syntax-ns#"
   xmlns:svg="http://www.w3.org/2000/svg"
   xmlns="http://www.w3.org/2000/svg"
   xmlns:sodipodi="http://sodipodi.sourceforge.net/DTD/sodipodi-0.dtd"
   xmlns:inkscape="http://www.inkscape.org/namespaces/inkscape"
   width="20.144924mm"
   height="7.6495619mm"
   viewBox="0 0 20.144924 7.6495619"
   version="1.1"
   id="svg2184"
   inkscape:version="0.92.4 5da689c313, 2019-01-14"
   sodipodi:docname="bmc.svg">
  <defs
     id="defs2178" />
  <sodipodi:namedview
     id="base"
     pagecolor="#ffffff"
     bordercolor="#666666"
     borderopacity="1.0"
     inkscape:pageopacity="0.0"
     inkscape:pageshadow="2"
     inkscape:zoom="11.2"
     inkscape:cx="9.2585958"
     inkscape:cy="5.9442397"
     inkscape:document-units="mm"
     inkscape:current-layer="layer1"
     showgrid="false"
     inkscape:window-width="2560"
     inkscape:window-height="1338"
     inkscape:window-x="0"
     inkscape:window-y="34"
     inkscape:window-maximized="1" />
  <metadata
     id="metadata2181">
    <rdf:RDF>
      <cc:Work
         rdf:about="">
        <dc:format>image/svg+xml</dc:format>
        <dc:type
           rdf:resource="http://purl.org/dc/dcmitype/StillImage" />
        <dc:title />
      </cc:Work>
    </rdf:RDF>
  </metadata>
  <g
     inkscape:label="Layer 1"
     inkscape:groupmode="layer"
     id="layer1"
     transform="translate(-74.594207,-87.556168)">
    <g
       aria-label="bmc"
       style="font-style:normal;font-weight:normal;font-size:10.58333302px;line-height:1.25;font-family:sans-serif;letter-spacing:0px;word-spacing:0px;fill:none;fill-opacity:1;stroke:#019875;stroke-width:0.26499999;stroke-linecap:round;stroke-linejoin:round;stroke-miterlimit:4;stroke-dasharray:none;stroke-dashoffset:0;stroke-opacity:0.99719902;paint-order:normal"
       id="text817-0">
      <path
         d="m 77.377708,94.308418 c -0.521932,0 -0.966349,-0.186035 -1.333252,-0.552938 -0.366902,-0.37207 -0.542602,-0.816487 -0.542602,-1.338419 0,-0.521932 0.180867,-0.966349 0.542602,-1.333252 0.366903,-0.366903 0.81132,-0.552938 1.333252,-0.552938 0.258382,0 0.501262,0.04651 0.728638,0.139527 0.227376,0.09302 0.434082,0.232544 0.620117,0.418579 0.366903,0.366902 0.54777,0.81132 0.54777,1.338419 0,0.521932 -0.180867,0.966349 -0.54777,1.333252 -0.366902,0.366903 -0.816487,0.552938 -1.348755,0.552938 z m 0,-4.547526 c -0.237711,0 -0.470255,0.03101 -0.702799,0.09819 -0.232544,0.06718 -0.454753,0.155029 -0.666626,0.279052 -0.08785,0.05168 -0.1757,0.118856 -0.26355,0.186035 -0.08785,0.06718 -0.170532,0.139527 -0.248047,0.217041 v -2.464965 c 0,-0.05684 -0.0052,-0.103353 -0.0155,-0.139527 -0.01033,-0.03617 -0.03101,-0.06718 -0.05684,-0.09302 -0.10852,-0.103353 -0.211873,-0.155029 -0.310058,-0.155029 -0.108521,0 -0.217041,0.05168 -0.325562,0.155029 -0.02067,0.02584 -0.03617,0.05684 -0.04651,0.09302 -0.01033,0.03617 -0.0155,0.08268 -0.0155,0.139527 0,0.366902 0,0.728637 0,1.085205 0,0.356567 0,0.718302 0,1.080037 v 2.165243 c 0,0.728637 0.253215,1.353922 0.780315,1.875854 0.532267,0.521932 1.157552,0.785482 1.875854,0.785482 0.733805,0 1.364258,-0.26355 1.88619,-0.785482 0.521932,-0.521932 0.780314,-1.147217 0.780314,-1.881022 0,-0.733805 -0.258382,-1.35909 -0.780314,-1.881022 -0.521932,-0.521932 -1.152385,-0.780314 -1.891358,-0.780314 z"
         style="font-style:normal;font-variant:normal;font-weight:bold;font-stretch:normal;font-family:Modulus;-inkscape-font-specification:'Modulus Bold';fill:none;fill-opacity:1;stroke:#019875;stroke-width:0.365;stroke-linecap:round;stroke-linejoin:round;stroke-miterlimit:4;stroke-dasharray:none;stroke-dashoffset:0;stroke-opacity:0.99719902;paint-order:normal"
         id="path814" />
      <path
         d="m 86.937848,89.791898 c -0.43925,0 -0.847493,0.129191 -1.219564,0.377238 -0.10852,0.07235 -0.206705,0.149862 -0.299723,0.242879 -0.09302,0.09302 -0.1757,0.196371 -0.253215,0.304891 -0.06718,-0.09819 -0.149861,-0.19637 -0.248046,-0.289388 -0.09819,-0.09302 -0.201538,-0.1757 -0.310059,-0.253214 -0.366903,-0.253215 -0.775146,-0.377238 -1.224731,-0.377238 -0.583944,0 -1.090373,0.206706 -1.51412,0.620117 -0.418579,0.408244 -0.640788,0.909505 -0.640788,1.498617 v 2.775024 c 0,0.09818 0.03617,0.186035 0.103353,0.26355 0.06718,0.07751 0.160197,0.113688 0.279053,0.113688 0.09819,0 0.186035,-0.03101 0.26355,-0.108521 0.07235,-0.06718 0.10852,-0.155029 0.10852,-0.263549 v -2.744019 c 0,-0.387573 0.144694,-0.707967 0.413412,-0.981852 0.273885,-0.273885 0.599446,-0.418579 0.98702,-0.418579 0.382405,0 0.713134,0.139526 0.987019,0.418579 0.273886,0.273885 0.408244,0.599446 0.408244,0.981852 v 2.744019 c 0,0.124023 0.04134,0.211873 0.124024,0.28422 0.07235,0.06718 0.155029,0.09302 0.248047,0.09302 0.10852,0 0.19637,-0.031 0.268717,-0.10852 0.07235,-0.07752 0.108521,-0.165365 0.108521,-0.268717 v -2.744019 c 0,-0.387573 0.139526,-0.707967 0.413411,-0.981852 0.279053,-0.279053 0.604614,-0.418579 0.992187,-0.418579 0.387574,0 0.718303,0.139526 0.992188,0.418579 0.268717,0.268717 0.403076,0.594279 0.403076,0.981852 v 2.744019 c 0,0.113688 0.03617,0.19637 0.113688,0.268717 0.08268,0.07235 0.165365,0.10852 0.26355,0.10852 0.09302,0 0.180867,-0.031 0.258382,-0.103352 0.08268,-0.06201 0.124024,-0.15503 0.124024,-0.273885 v -2.744019 c 0,-0.583944 -0.211874,-1.090373 -0.635621,-1.519287 -0.408243,-0.418579 -0.914672,-0.630452 -1.519287,-0.630452 z"
         style="font-style:normal;font-variant:normal;font-weight:bold;font-stretch:normal;font-family:Modulus;-inkscape-font-specification:'Modulus Bold';fill:none;fill-opacity:1;stroke:#019875;stroke-width:0.365;stroke-linecap:round;stroke-linejoin:round;stroke-miterlimit:4;stroke-dasharray:none;stroke-dashoffset:0;stroke-opacity:0.99719902;paint-order:normal"
         id="path816" />
      <path
         d="m 94.539451,93.93118 c -0.06718,-0.08785 -0.155029,-0.139526 -0.263549,-0.155029 h -0.05168 c -0.07751,0 -0.149861,0.03101 -0.222208,0.08785 -0.335897,0.273885 -0.728638,0.413411 -1.178223,0.413411 -0.516764,0 -0.956014,-0.180867 -1.317749,-0.542602 -0.366903,-0.361735 -0.54777,-0.800985 -0.54777,-1.317749 0,-0.511597 0.180867,-0.950846 0.54777,-1.317749 0.366903,-0.366903 0.806152,-0.54777 1.317749,-0.54777 0.206706,0 0.408244,0.03617 0.609782,0.10852 0.201538,0.07235 0.387573,0.1757 0.558105,0.304891 0.07752,0.05684 0.15503,0.08268 0.232544,0.08268 h 0.05168 c 0.05684,-0.0052 0.103353,-0.02067 0.139526,-0.04134 0.03617,-0.02067 0.07235,-0.05168 0.103353,-0.08785 0.02584,-0.04134 0.04651,-0.08268 0.06201,-0.129191 0.0155,-0.04651 0.02584,-0.09302 0.02584,-0.139526 -0.01033,-0.07235 -0.02584,-0.129191 -0.05168,-0.170532 -0.02584,-0.04134 -0.06201,-0.08268 -0.10852,-0.118856 -0.232544,-0.180868 -0.485759,-0.320394 -0.764811,-0.418579 -0.279053,-0.09819 -0.568441,-0.149862 -0.868164,-0.149862 -0.718303,0 -1.33842,0.258382 -1.860352,0.769979 -0.511597,0.506429 -0.769979,1.126546 -0.769979,1.855184 0,0.718302 0.253215,1.343587 0.769979,1.860351 0.516764,0.516765 1.142049,0.764812 1.860352,0.764812 0.625284,0 1.173055,-0.196371 1.648478,-0.589112 l -0.0052,0.0052 c 0.09302,-0.05168 0.144694,-0.139526 0.149862,-0.258382 0,-0.05684 -0.0052,-0.103353 -0.0155,-0.144694 -0.01033,-0.04134 -0.03101,-0.07752 -0.05684,-0.113688 0,-0.0052 0,-0.0052 0,-0.0052 0,0 0,0 0,-0.0052 z"
         style="font-style:normal;font-variant:normal;font-weight:bold;font-stretch:normal;font-family:Modulus;-inkscape-font-specification:'Modulus Bold';fill:none;fill-opacity:1;stroke:#019875;stroke-width:0.365;stroke-linecap:round;stroke-linejoin:round;stroke-miterlimit:4;stroke-dasharray:none;stroke-dashoffset:0;stroke-opacity:0.99719902;paint-order:normal"
         id="path818" />
    </g>
  </g>
</svg>
